<svg width="24" height="24" viewBox="0 0 24 24" fill="none" xmlns="http://www.w3.org/2000/svg">
  <path d="M12.0005 2.75C9.93814 2.75 8.25049 4.41 8.25049 6.5V7.59C8.25049 8.13 8.06049 9.01 7.79049 9.48L6.79049 11.17C6.32049 12 6.45049 12.94 7.02049 13.64C7.58049 14.34 8.50049 14.67 9.44049 14.48L9.76049 14.41C10.0705 14.35 10.5305 14.47 10.7605 14.71L11.1305 15.07C11.6205 15.56 12.3705 15.56 12.8705 15.07L13.2505 14.69C13.4805 14.46 13.9305 14.33 14.2405 14.4L14.5605 14.47C15.5105 14.66 16.4205 14.33 16.9805 13.63C17.5505 12.93 17.6805 12 17.2105 11.17L16.2005 9.48C15.9305 9.01 15.7405 8.13 15.7405 7.59V6.5C15.7505 4.41 14.0605 2.75 12.0005 2.75Z" stroke="white" stroke-width="1.5" stroke-linecap="round" stroke-linejoin="round"/>
  <path d="M15.56 14.85C15.56 17.2 13.98 19.1 12 19.1C10.02 19.1 8.44 17.2 8.44 14.85" stroke="white" stroke-width="1.5" stroke-linecap="round" stroke-linejoin="round"/>
</svg> 